<?xml version="1.0" encoding="utf-8"?>
<!-- Generator: Adobe Illustrator 21.0.0, SVG Export Plug-In . SVG Version: 6.00 Build 0)  -->
<svg version="1.1" id="Layer_1" xmlns="http://www.w3.org/2000/svg" xmlns:xlink="http://www.w3.org/1999/xlink" x="0px" y="0px"
	 viewBox="0 0 192 175" style="enable-background:new 0 0 192 175;" xml:space="preserve">
<style type="text/css">
	.st0{fill:#476BDB;}
	.st1{fill:#4772DB;}
</style>
<g>
</g>
<g>
	<path class="st0" d="M96.8,10c4.1-0.8,8.4-1.1,12.6-0.1C105.9,12.8,100.1,13.4,96.8,10z"/>
	<path class="st0" d="M74.8,16.6c4.6-2.2,11.1-6.3,15.3-1.2c-3.7,1.8-7.4,3.8-11.4,4.7C76.4,20.9,75.5,18.3,74.8,16.6z"/>
	<path class="st0" d="M95.2,22.2c3.7-2.5,8-4.5,12.5-4.5c3.1,1.8,5.3,4.8,7.3,7.7c-4.1,2.2-8.4,3.9-12.7,5.7
		C99.8,28.2,97.5,25.2,95.2,22.2z"/>
	<path class="st0" d="M54.3,28.9c3.1-2.7,6.4-5.5,10.6-6.4c0.7,1.3,1.4,2.6,2,3.9c-3.4,2.8-7.1,5.3-10.9,7.5
		C53.3,33.7,54.7,30.7,54.3,28.9z"/>
	<path class="st0" d="M70.2,34c4.1-2.8,8.5-5.1,13-7c2.9,2.6,4.7,6.3,6.5,9.7c-4.4,3.2-9.3,5.5-14,8.3C73.4,41.6,71.2,38.1,70.2,34z
		"/>
	<path class="st0" d="M119.5,31.9c5.8,0.3,9.3,5.7,14.8,7c-0.5,4.5,1.5,9.7-1.2,13.7c-1.5-1-2.9-2-4.3-3
		c-9.2,4.5-17.9,9.9-26.9,14.9C75.7,80.1,48.9,95.8,27.5,118c-3.3,3.8-7.2,8.2-7.1,13.5c2.4,5.1,9,4.1,13.6,4.9
		c-3.2,1.3-6.8,0.7-10.1,0.8c-5.8,0.2-11.6-4.6-11.6-10.6c-0.4-9.2,5.8-16.7,11.2-23.4c12.5-14.1,28-25,43.3-35.7
		c13.5-9,27.5-17.4,41.8-25.2c3.6-2,7.4-3.6,10.8-5.9C119.4,34.8,119.5,33.4,119.5,31.9z"/>
	<path class="st0" d="M31.2,60.5c3.3-8.9,7.9-17.6,15-24.1c0.2,2.7,0.5,5.7-1.8,7.6C39.3,48.9,35.3,54.8,31.2,60.5z"/>
	<path class="st0" d="M34.7,65.2c7-8.6,14.7-16.7,23.6-23.5c2.3,3.2,5.3,6.9,5.1,11c-13.7,10-27.5,20.9-36,35.9
		c-0.2-4-0.4-8.1,0.4-12.1C29.1,72.3,31.9,68.7,34.7,65.2z"/>
	<path class="st0" d="M138.9,60.3c3.3-2.8,7.3-4.6,11.2-6.4c2.9,4.3,5.7,8.6,7.5,13.5c-3.5,2.3-6.9,6-11.1,6.6
		C143.5,69.7,141.1,65,138.9,60.3z"/>
	<path class="st0" d="M117.7,72c2.8-1.6,5.4-3.4,8.4-4.5c1.8,0.3,2.5,2.1,3.4,3.4c2,3.6,4.5,7,5.4,11.1
		c-22,13.4-44.7,25.7-67.5,37.7c-8.5,4-16.7,9.1-26,11.3c-1.8-3.4-5.2-6.7-4.8-10.7c17.7-11.4,35.9-22.1,54-32.9
		C99.8,82.5,108.7,77.2,117.7,72z"/>
	<path class="st0" d="M163.2,79.8c1.8-2.8,4.8-4.6,7.6-6.3c1.5,3.9,3.4,7.9,3.8,12.1c-1.2,3.1-3.9,5.7-6.9,6.9
		C166.2,88.2,163.9,84.2,163.2,79.8z"/>
	<path class="st0" d="M128.3,103c8.5-5.3,16.8-10.7,25-16.3c3,3.8,4.4,8.5,6.2,12.9c-1.5,2-3.3,3.6-5.4,4.9
		c-6.1,4.1-12,8.5-18.3,12.2C132.2,112.9,129.6,108.1,128.3,103z"/>
	<path class="st0" d="M177.2,103.7c-1.2-4.5-0.8-9.3,1.6-13.3C178.8,94.9,178.4,99.4,177.2,103.7z"/>
	<path class="st1" d="M162.9,111.6c1.7-3.6,5.1-5.9,8.1-8.3c0.7,2.7,1.6,5.3,1.4,8.1c-1.3,3.8-4.3,6.8-7.4,9.2
		C164.1,117.7,163.2,114.7,162.9,111.6z"/>
	<path class="st0" d="M80.6,128.3c11.9-4.9,23.1-11.1,34.4-17.1c2.8,4.4,6.2,8.6,7.7,13.6c-12.9,6.9-26.6,12.4-40.5,16.9
		c-7.7,2-15.3,4.9-23.2,5.1c-4.2-1.2-7.3-4.6-10-7.8C60,136.7,70.3,132.5,80.6,128.3z"/>
	<path class="st0" d="M137.3,129c5.4-3,10.3-6.8,15.7-9.7c2.1,2.7,2.8,6,3.6,9.2c-3.8,3.1-8,5.7-12.3,8.2
		c-19.1,10.4-39.4,19.8-61.3,22.1c-4.9-0.9-10.2-2.4-13.7-6.2c4.5-0.6,9.1-0.2,13.6-1.4C102,146.5,120.5,139.3,137.3,129z"/>
	<path class="st0" d="M121.2,154.7c18.9-7.9,37-19,49.9-35.1c-6.4,15.8-20.8,26.7-35.6,34.3c-11.6,5.8-24.7,9.2-37.7,7.5
		C105.6,159.3,113.7,158,121.2,154.7z"/>
</g>
</svg>
